 
http://www.imdb.com/title/tt0936501/ 
http://filmup.leonardo.it/sc_iovitrovero.htm

Io Vi Troverò (Taken, 2008) mkv h264 1080p dts-italiano dts-english

Un ex-spia dei servizi segreti, cerca di mettere a frutto tutta la sua
competenza e le sue conoscenze, per cercare di trarre in salvo la figlia che
è stata rapita da degli sconosciuti...

A former spy relies on his old skills to save his estranged daughter, who has
been forced into the slave trade.

Input #0, matroska, from 'Taken.1.mkv':
  Duration: 00:44:27.29, start: 0.000000, bitrate: N/A
    Stream #0.0(ita): Video: h264, yuv420p, 1920x816, PAR 1:1 DAR 40:17, 24 tbr, 1k tbn, 47.95 tbc
    Stream #0.1(ita): Audio: dca, 48000 Hz, 5.1, s16
    Stream #0.2(eng): Audio: dca, 48000 Hz, 5.1, s16

Input #0, matroska, from 'Taken.2.mkv':
  Duration: 00:48:57.35, start: 0.000000, bitrate: N/A
    Stream #0.0(ita): Video: h264, yuv420p, 1920x816, PAR 1:1 DAR 40:17, 23.98 tbr, 1k tbn, 47.95 tbc
    Stream #0.1(ita): Audio: dca, 48000 Hz, 5.1, s16
    Stream #0.2(eng): Audio: dca, 48000 Hz, 5.1, s16

Video Bitrate: 11805 kbps
Profile: High@L4.1

WDTV compatible  
http://wdtvforum.com/main/
